# xmcd
#
# Track frame offsets:
#	150
#	31141
#	60190
#	81996
#	100077
#	136720
#	156550
#	174867
#
# Disc length: 2689 seconds
#
# Revision: 0
# Processed by: cddbd v1.5.2PL0 Copyright (c) Steve Scherf et al.
# Submitted via: EasyCDDAExtractor 9.0.0.1
#
DISCID=550a7f08
DTITLE=James Gang - Casino Potawatomi 13-08-06 Disc 1
DYEAR=2006
DGENRE=Hard Rock
TTITLE0=Walk Away
TTITLE1=Take A Look Around
TTITLE2=Midnight Man
TTITLE3=Asshton Park
TTITLE4=The Bomber(Closet Queen - Bolero - Cast Your Fate To The Wind)
TTITLE5=Garden Gate
TTITLE6=Ashes The Rain And I
TTITLE7=Tend My Garden
EXTD=
EXTT0=
EXTT1=
EXTT2=
EXTT3=
EXTT4=
EXTT5=
EXTT6=
EXTT7=
PLAYORDER=
